<?xml version="1.0" encoding="UTF-8" standalone="no"?>
<svg xmlns="http://www.w3.org/2000/svg" viewBox="0 0 423 298">
	<defs id="defs48" />
	<g id="Layer_5_91_" transform="matrix(0,1,1,0,-2.6473872e-4,-62.862149)">
		<path d="m 263.682,122.128 -13.991,-6.808 c -4.692,-2.284 -10.363,-0.326 -12.647,4.366 L 154.996,288.28 c -2.282,4.688 -0.324,10.358 4.369,12.645 l 13.989,6.81 c 4.689,2.28 10.361,0.322 12.643,-4.364 l 82.049,-168.595 c 2.283,-4.693 0.325,-10.364 -4.364,-12.648 z" id="path10" />
		<path d="m 180.45,178.931 c 1.683,2.523 6.635,4.55 8.544,0.618 3.949,-8.133 10.462,-21.538 13.263,-27.233 2.505,-5.095 0.673,-13.37 0.069,-16.883 -1.051,-6.121 -0.717,-12.124 1.801,-17.298 l 29.75,-61.129 c 9.7,-19.933 40.884,-24.611 60.233,-15.193 0.233,0.113 0.462,0.241 0.694,0.359 0.234,0.111 0.479,0.215 0.709,0.33 19.271,9.578 34.604,37.131 24.736,56.982 l -30.254,60.881 c -2.56,5.152 -7.108,9.082 -12.601,11.986 -3.15,1.667 -10.823,5.268 -13.329,10.362 -2.801,5.695 -9.441,19.038 -13.475,27.13 -1.947,3.913 2.682,6.6 5.705,6.391 26.521,-1.823 54.54,-14.38 66.945,-39.347 l 30.254,-60.88 C 371.463,79.85 351.699,28.966 312.03,9.253 311.751,9.114 311.468,8.983 311.187,8.849 310.908,8.708 310.632,8.565 310.351,8.428 270.521,-10.956 218.154,4.455 200.483,40.759 l -29.75,61.129 c -12.19,25.07 -5.028,54.925 9.717,77.043 z" id="path12" />
		<path d="m 242.596,244.108 c -1.685,-2.522 -6.638,-4.551 -8.547,-0.616 -3.946,8.133 -10.461,21.537 -13.262,27.231 -2.506,5.096 -0.674,13.369 -0.07,16.884 1.053,6.12 0.719,12.124 -1.801,17.297 l -29.75,61.129 c -9.701,19.934 -40.883,24.611 -60.234,15.193 -0.233,-0.112 -0.463,-0.24 -0.695,-0.358 -0.235,-0.11 -0.478,-0.216 -0.709,-0.33 -19.273,-9.577 -34.604,-37.13 -24.738,-56.982 l 30.254,-60.881 c 2.561,-5.151 7.111,-9.081 12.601,-11.985 3.151,-1.667 10.823,-5.268 13.329,-10.36 2.801,-5.695 9.441,-19.037 13.473,-27.132 1.949,-3.913 -2.68,-6.599 -5.705,-6.391 -26.52,1.825 -54.539,14.38 -66.945,39.348 l -30.254,60.881 c -17.968,36.155 1.796,87.04 41.465,106.753 0.279,0.14 0.563,0.271 0.843,0.404 0.278,0.141 0.555,0.283 0.836,0.421 39.829,19.384 92.198,3.974 109.868,-32.331 l 29.748,-61.129 c 12.198,-25.071 5.036,-54.928 -9.707,-77.046 z" id="path14" />
	</g>
</svg>